STARTFONT 2.1
COMMENT screen bold font, 9 x 17 pixels
FONT -misc-fixed-bold-r-normal--17-140-75-75-c-90-iso8859-2
SIZE 17 72 72
FONTBOUNDINGBOX 9 17 0 -3
STARTPROPERTIES 27
FONT_ASCENT 14
FONT_DESCENT 3
DEFAULT_CHAR 0
FONTNAME_REGISTRY ""
FOUNDRY "Misc"
FAMILY_NAME "Fixed"
WEIGHT_NAME "Bold"
SLANT "R"
SETWIDTH_NAME "Normal"
ADD_STYLE_NAME ""
PIXEL_SIZE 17
POINT_SIZE 140
RESOLUTION_X 75
RESOLUTION_Y 75
SPACING "C"
AVERAGE_WIDTH 90
CHARSET_REGISTRY "ISO8859"
CHARSET_ENCODING "2"
UNDERLINE_POSITION -2
DESTINATION 1
COPYRIGHT "Libor Skarvada, libor@informatics.muni.cz"
FONT "-Misc-Fixed-Bold-R-Normal--17-140-75-75-C-90-ISO8859-2"
WEIGHT 10
RESOLUTION 75
CAP_HEIGHT 10
X_HEIGHT 7
QUAD_WIDTH 9
ENDPROPERTIES
CHARS 224
STARTCHAR 0
ENCODING 0
SWIDTH 750 0
DWIDTH 9 0
BBX 1 1 0 -3
BITMAP
00
ENDCHAR
STARTCHAR 1
ENCODING 1
SWIDTH 750 0
DWIDTH 9 0
BBX 8 7 0 1
BITMAP
18
3c
7e
ff
7e
3c
18
ENDCHAR
STARTCHAR 2
ENCODING 2
SWIDTH 750 0
DWIDTH 9 0
BBX 8 15 0 -3
BITMAP
cc
33
cc
33
cc
33
cc
33
cc
33
cc
33
cc
33
cc
ENDCHAR
STARTCHAR 3
ENCODING 3
SWIDTH 750 0
DWIDTH 9 0
BBX 9 13 0 -2
BITMAP
cc00
cc00
fc00
cc00
cc00
cc00
0000
1f80
0600
0600
0600
0600
0600
ENDCHAR
STARTCHAR 4
ENCODING 4
SWIDTH 750 0
DWIDTH 9 0
BBX 9 13 0 -2
BITMAP
fc00
c000
f800
c000
c000
c000
0000
1f80
1800
1f00
1800
1800
1800
ENDCHAR
STARTCHAR 5
ENCODING 5
SWIDTH 750 0
DWIDTH 9 0
BBX 9 13 0 -2
BITMAP
7800
cc00
c000
c000
cc00
7800
0000
1f00
1980
1980
1f00
1b00
1980
ENDCHAR
STARTCHAR 6
ENCODING 6
SWIDTH 750 0
DWIDTH 9 0
BBX 9 13 0 -2
BITMAP
c000
c000
c000
c000
c000
fc00
0000
1f80
1800
1f00
1800
1800
1800
ENDCHAR
STARTCHAR 7
ENCODING 7
SWIDTH 750 0
DWIDTH 9 0
BBX 5 5 2 6
BITMAP
70
d8
88
d8
70
ENDCHAR
STARTCHAR 8
ENCODING 8
SWIDTH 750 0
DWIDTH 9 0
BBX 6 9 1 0
BITMAP
30
30
fc
fc
30
30
00
fc
fc
ENDCHAR
STARTCHAR 9
ENCODING 9
SWIDTH 750 0
DWIDTH 9 0
BBX 9 13 0 -2
BITMAP
cc00
ec00
fc00
dc00
cc00
cc00
0000
1800
1800
1800
1800
1800
1f80
ENDCHAR
STARTCHAR 10
ENCODING 10
SWIDTH 750 0
DWIDTH 9 0
BBX 9 13 0 -2
BITMAP
cc00
cc00
cc00
cc00
7800
3000
0000
1f80
0600
0600
0600
0600
0600
ENDCHAR
STARTCHAR 11
ENCODING 11
SWIDTH 750 0
DWIDTH 9 0
BBX 5 10 0 4
BITMAP
18
08
18
18
18
18
18
18
f8
f8
ENDCHAR
STARTCHAR 12
ENCODING 12
SWIDTH 750 0
DWIDTH 9 0
BBX 5 9 0 -3
BITMAP
f8
f8
18
18
18
18
18
18
18
ENDCHAR
STARTCHAR 13
ENCODING 13
SWIDTH 750 0
DWIDTH 9 0
BBX 6 9 3 -3
BITMAP
fc
fc
c0
c0
c0
c0
c0
c0
c0
ENDCHAR
STARTCHAR 14
ENCODING 14
SWIDTH 750 0
DWIDTH 9 0
BBX 6 10 3 4
BITMAP
c0
c0
c0
c0
c0
c0
c0
c0
fc
fc
ENDCHAR
STARTCHAR 15
ENCODING 15
SWIDTH 750 0
DWIDTH 9 0
BBX 9 17 0 -3
BITMAP
1800
1800
1800
1800
1800
1800
1800
1800
ff80
ff80
1800
1800
1800
1800
1800
1800
1800
ENDCHAR
STARTCHAR 16
ENCODING 16
SWIDTH 750 0
DWIDTH 9 0
BBX 9 2 0 10
BITMAP
ff80
ff80
ENDCHAR
STARTCHAR 17
ENCODING 17
SWIDTH 750 0
DWIDTH 9 0
BBX 9 2 0 7
BITMAP
ff80
ff80
ENDCHAR
STARTCHAR 18
ENCODING 18
SWIDTH 750 0
DWIDTH 9 0
BBX 9 2 0 4
BITMAP
ff80
ff80
ENDCHAR
STARTCHAR 19
ENCODING 19
SWIDTH 750 0
DWIDTH 9 0
BBX 9 2 0 1
BITMAP
ff80
ff80
ENDCHAR
STARTCHAR 20
ENCODING 20
SWIDTH 750 0
DWIDTH 9 0
BBX 9 2 0 -2
BITMAP
ff80
ff80
ENDCHAR
STARTCHAR 21
ENCODING 21
SWIDTH 750 0
DWIDTH 9 0
BBX 6 17 3 -3
BITMAP
c0
c0
c0
c0
c0
c0
c0
c0
fc
fc
c0
c0
c0
c0
c0
c0
c0
ENDCHAR
STARTCHAR 22
ENCODING 22
SWIDTH 750 0
DWIDTH 9 0
BBX 5 17 0 -3
BITMAP
18
18
18
18
18
18
18
18
f8
f8
18
18
18
18
18
18
18
ENDCHAR
STARTCHAR 23
ENCODING 23
SWIDTH 750 0
DWIDTH 9 0
BBX 9 10 0 4
BITMAP
1800
1800
1800
1800
1800
1800
1800
1800
ff80
ff80
ENDCHAR
STARTCHAR 24
ENCODING 24
SWIDTH 750 0
DWIDTH 9 0
BBX 9 9 0 -3
BITMAP
ff80
ff80
1800
1800
1800
1800
1800
1800
1800
ENDCHAR
STARTCHAR 25
ENCODING 25
SWIDTH 750 0
DWIDTH 9 0
BBX 2 17 3 -3
BITMAP
c0
c0
c0
c0
c0
c0
c0
c0
c0
c0
c0
c0
c0
c0
c0
c0
c0
ENDCHAR
STARTCHAR 26
ENCODING 26
SWIDTH 750 0
DWIDTH 9 0
BBX 6 9 1 0
BITMAP
0c
18
60
c0
60
18
0c
fc
fc
ENDCHAR
STARTCHAR 27
ENCODING 27
SWIDTH 750 0
DWIDTH 9 0
BBX 6 9 1 0
BITMAP
c0
60
18
0c
18
60
c0
fc
fc
ENDCHAR
STARTCHAR 28
ENCODING 28
SWIDTH 750 0
DWIDTH 9 0
BBX 8 7 0 0
BITMAP
7f
f6
36
36
36
36
67
ENDCHAR
STARTCHAR 29
ENCODING 29
SWIDTH 750 0
DWIDTH 9 0
BBX 8 11 0 -2
BITMAP
03
03
06
ff
ff
18
ff
ff
60
c0
c0
ENDCHAR
STARTCHAR 30
ENCODING 30
SWIDTH 750 0
DWIDTH 9 0
BBX 8 10 0 0
BITMAP
1e
33
30
30
7c
30
30
30
f1
df
ENDCHAR
STARTCHAR 31
ENCODING 31
SWIDTH 750 0
DWIDTH 9 0
BBX 2 2 3 4
BITMAP
c0
c0
ENDCHAR
STARTCHAR 32
ENCODING 32
SWIDTH 750 0
DWIDTH 9 0
BBX 1 1 0 -3
BITMAP
00
ENDCHAR
STARTCHAR 33
ENCODING 33
SWIDTH 750 0
DWIDTH 9 0
BBX 4 10 2 0
BITMAP
60
f0
f0
f0
60
60
60
00
60
60
ENDCHAR
STARTCHAR 34
ENCODING 34
SWIDTH 750 0
DWIDTH 9 0
BBX 5 5 2 6
BITMAP
d8
d8
d8
d8
50
ENDCHAR
STARTCHAR 35
ENCODING 35
SWIDTH 750 0
DWIDTH 9 0
BBX 7 11 1 0
BITMAP
6c
6c
6c
fe
fe
6c
fe
fe
6c
6c
6c
ENDCHAR
STARTCHAR 36
ENCODING 36
SWIDTH 750 0
DWIDTH 9 0
BBX 8 14 0 -2
BITMAP
18
18
7e
db
d8
d8
38
1c
1b
1b
db
7e
18
18
ENDCHAR
STARTCHAR 37
ENCODING 37
SWIDTH 750 0
DWIDTH 9 0
BBX 9 12 0 -1
BITMAP
6100
d300
d300
d600
6c00
0c00
1800
1300
3580
6580
6580
4300
ENDCHAR
STARTCHAR 38
ENCODING 38
SWIDTH 750 0
DWIDTH 9 0
BBX 8 12 0 0
BITMAP
78
cc
cc
d8
78
30
71
db
ce
cc
de
73
ENDCHAR
STARTCHAR 39
ENCODING 39
SWIDTH 750 0
DWIDTH 9 0
BBX 4 5 2 6
BITMAP
70
70
30
60
c0
ENDCHAR
STARTCHAR 40
ENCODING 40
SWIDTH 750 0
DWIDTH 9 0
BBX 5 13 2 -1
BITMAP
18
30
60
60
c0
c0
c0
c0
c0
60
60
30
18
ENDCHAR
STARTCHAR 41
ENCODING 41
SWIDTH 750 0
DWIDTH 9 0
BBX 5 13 1 -1
BITMAP
c0
60
30
30
18
18
18
18
18
30
30
60
c0
ENDCHAR
STARTCHAR 42
ENCODING 42
SWIDTH 750 0
DWIDTH 9 0
BBX 9 8 0 1
BITMAP
6300
3600
1c00
ff80
ff80
1c00
3600
6300
ENDCHAR
STARTCHAR 43
ENCODING 43
SWIDTH 750 0
DWIDTH 9 0
BBX 8 8 0 1
BITMAP
18
18
18
ff
ff
18
18
18
ENDCHAR
STARTCHAR 44
ENCODING 44
SWIDTH 750 0
DWIDTH 9 0
BBX 4 5 2 -3
BITMAP
20
70
30
60
c0
ENDCHAR
STARTCHAR 45
ENCODING 45
SWIDTH 750 0
DWIDTH 9 0
BBX 7 2 1 4
BITMAP
fe
fe
ENDCHAR
STARTCHAR 46
ENCODING 46
SWIDTH 750 0
DWIDTH 9 0
BBX 3 3 2 -1
BITMAP
40
e0
40
ENDCHAR
STARTCHAR 47
ENCODING 47
SWIDTH 750 0
DWIDTH 9 0
BBX 8 14 0 -2
BITMAP
03
03
06
06
0c
0c
18
18
30
30
60
60
c0
c0
ENDCHAR
STARTCHAR 48
ENCODING 48
SWIDTH 750 0
DWIDTH 9 0
BBX 7 10 1 0
BITMAP
38
6c
c6
c6
c6
c6
c6
c6
6c
38
ENDCHAR
STARTCHAR 49
ENCODING 49
SWIDTH 750 0
DWIDTH 9 0
BBX 6 10 1 0
BITMAP
30
70
f0
30
30
30
30
30
30
fc
ENDCHAR
STARTCHAR 50
ENCODING 50
SWIDTH 750 0
DWIDTH 9 0
BBX 7 10 0 0
BITMAP
7c
c6
c6
06
0c
18
30
60
c2
fe
ENDCHAR
STARTCHAR 51
ENCODING 51
SWIDTH 750 0
DWIDTH 9 0
BBX 7 10 0 0
BITMAP
7c
c6
06
06
3c
06
06
06
c6
7c
ENDCHAR
STARTCHAR 52
ENCODING 52
SWIDTH 750 0
DWIDTH 9 0
BBX 7 10 1 0
BITMAP
0c
1c
3c
6c
6c
cc
cc
fe
0c
0c
ENDCHAR
STARTCHAR 53
ENCODING 53
SWIDTH 750 0
DWIDTH 9 0
BBX 7 10 0 0
BITMAP
fe
c0
c0
fc
c6
06
06
06
c6
7c
ENDCHAR
STARTCHAR 54
ENCODING 54
SWIDTH 750 0
DWIDTH 9 0
BBX 7 10 0 0
BITMAP
3c
60
c0
c0
fc
e6
c6
c6
c6
7c
ENDCHAR
STARTCHAR 55
ENCODING 55
SWIDTH 750 0
DWIDTH 9 0
BBX 7 10 0 0
BITMAP
fe
86
06
0c
18
18
30
30
60
60
ENDCHAR
STARTCHAR 56
ENCODING 56
SWIDTH 750 0
DWIDTH 9 0
BBX 7 10 0 0
BITMAP
7c
c6
c6
6c
38
6c
c6
c6
c6
7c
ENDCHAR
STARTCHAR 57
ENCODING 57
SWIDTH 750 0
DWIDTH 9 0
BBX 7 10 0 0
BITMAP
7c
c6
c6
c6
c6
7e
06
06
0c
78
ENDCHAR
STARTCHAR 58
ENCODING 58
SWIDTH 750 0
DWIDTH 9 0
BBX 3 8 2 0
BITMAP
40
e0
40
00
00
40
e0
40
ENDCHAR
STARTCHAR 59
ENCODING 59
SWIDTH 750 0
DWIDTH 9 0
BBX 4 10 1 -3
BITMAP
20
70
20
00
00
20
70
30
60
c0
ENDCHAR
STARTCHAR 60
ENCODING 60
SWIDTH 750 0
DWIDTH 9 0
BBX 6 9 1 1
BITMAP
0c
18
30
60
c0
60
30
18
0c
ENDCHAR
STARTCHAR 61
ENCODING 61
SWIDTH 750 0
DWIDTH 9 0
BBX 7 5 1 3
BITMAP
fe
fe
00
fe
fe
ENDCHAR
STARTCHAR 62
ENCODING 62
SWIDTH 750 0
DWIDTH 9 0
BBX 6 9 1 1
BITMAP
c0
60
30
18
0c
18
30
60
c0
ENDCHAR
STARTCHAR 63
ENCODING 63
SWIDTH 750 0
DWIDTH 9 0
BBX 7 12 0 -1
BITMAP
7c
c6
c6
06
0c
18
38
10
00
10
38
10
ENDCHAR
STARTCHAR 64
ENCODING 64
SWIDTH 750 0
DWIDTH 9 0
BBX 8 11 0 -1
BITMAP
3e
41
9d
ad
ad
ad
ad
ad
9e
40
3f
ENDCHAR
STARTCHAR 65
ENCODING 65
SWIDTH 750 0
DWIDTH 9 0
BBX 8 10 0 0
BITMAP
18
3c
66
66
c3
c3
ff
c3
c3
c3
ENDCHAR
STARTCHAR 66
ENCODING 66
SWIDTH 750 0
DWIDTH 9 0
BBX 7 10 1 0
BITMAP
f8
cc
c6
cc
f8
cc
c6
c6
cc
f8
ENDCHAR
STARTCHAR 67
ENCODING 67
SWIDTH 750 0
DWIDTH 9 0
BBX 8 10 0 0
BITMAP
3e
63
c0
c0
c0
c0
c0
c0
63
3e
ENDCHAR
STARTCHAR 68
ENCODING 68
SWIDTH 750 0
DWIDTH 9 0
BBX 7 10 1 0
BITMAP
f8
cc
c6
c6
c6
c6
c6
c6
cc
f8
ENDCHAR
STARTCHAR 69
ENCODING 69
SWIDTH 750 0
DWIDTH 9 0
BBX 8 10 0 0
BITMAP
ff
c3
c0
c0
fc
c0
c0
c0
c3
ff
ENDCHAR
STARTCHAR 70
ENCODING 70
SWIDTH 750 0
DWIDTH 9 0
BBX 8 10 0 0
BITMAP
ff
c3
c0
c0
fc
c0
c0
c0
c0
c0
ENDCHAR
STARTCHAR 71
ENCODING 71
SWIDTH 750 0
DWIDTH 9 0
BBX 8 10 0 0
BITMAP
3e
63
c0
c0
c0
cf
c3
c3
63
3f
ENDCHAR
STARTCHAR 72
ENCODING 72
SWIDTH 750 0
DWIDTH 9 0
BBX 8 10 0 0
BITMAP
c3
c3
c3
c3
ff
c3
c3
c3
c3
c3
ENDCHAR
STARTCHAR 73
ENCODING 73
SWIDTH 750 0
DWIDTH 9 0
BBX 6 10 1 0
BITMAP
fc
30
30
30
30
30
30
30
30
fc
ENDCHAR
STARTCHAR 74
ENCODING 74
SWIDTH 750 0
DWIDTH 9 0
BBX 8 10 0 0
BITMAP
0f
06
06
06
06
06
06
06
c6
7c
ENDCHAR
STARTCHAR 75
ENCODING 75
SWIDTH 750 0
DWIDTH 9 0
BBX 8 10 0 0
BITMAP
c3
c6
cc
d8
f0
f0
d8
cc
c6
c3
ENDCHAR
STARTCHAR 76
ENCODING 76
SWIDTH 750 0
DWIDTH 9 0
BBX 8 10 0 0
BITMAP
c0
c0
c0
c0
c0
c0
c0
c0
c3
ff
ENDCHAR
STARTCHAR 77
ENCODING 77
SWIDTH 750 0
DWIDTH 9 0
BBX 9 10 0 0
BITMAP
c180
c180
e380
f780
dd80
c980
c180
c180
c180
c180
ENDCHAR
STARTCHAR 78
ENCODING 78
SWIDTH 750 0
DWIDTH 9 0
BBX 8 10 0 0
BITMAP
c3
c3
e3
f3
db
cf
c7
c3
c3
c3
ENDCHAR
STARTCHAR 79
ENCODING 79
SWIDTH 750 0
DWIDTH 9 0
BBX 8 10 0 0
BITMAP
7e
c3
c3
c3
c3
c3
c3
c3
c3
7e
ENDCHAR
STARTCHAR 80
ENCODING 80
SWIDTH 750 0
DWIDTH 9 0
BBX 7 10 1 0
BITMAP
fc
c6
c6
c6
c6
fc
c0
c0
c0
c0
ENDCHAR
STARTCHAR 81
ENCODING 81
SWIDTH 750 0
DWIDTH 9 0
BBX 8 12 0 -2
BITMAP
7e
c3
c3
c3
c3
c3
c3
db
cf
7e
03
01
ENDCHAR
STARTCHAR 82
ENCODING 82
SWIDTH 750 0
DWIDTH 9 0
BBX 7 10 1 0
BITMAP
fc
c6
c6
c6
fc
d8
cc
cc
c6
c6
ENDCHAR
STARTCHAR 83
ENCODING 83
SWIDTH 750 0
DWIDTH 9 0
BBX 8 10 0 0
BITMAP
7e
c3
c0
c0
7c
3e
03
03
c3
7e
ENDCHAR
STARTCHAR 84
ENCODING 84
SWIDTH 750 0
DWIDTH 9 0
BBX 8 10 0 0
BITMAP
ff
99
18
18
18
18
18
18
18
3c
ENDCHAR
STARTCHAR 85
ENCODING 85
SWIDTH 750 0
DWIDTH 9 0
BBX 8 10 0 0
BITMAP
c3
c3
c3
c3
c3
c3
c3
c3
c3
7e
ENDCHAR
STARTCHAR 86
ENCODING 86
SWIDTH 750 0
DWIDTH 9 0
BBX 8 10 0 0
BITMAP
c3
c3
c3
c3
66
66
3c
3c
18
18
ENDCHAR
STARTCHAR 87
ENCODING 87
SWIDTH 750 0
DWIDTH 9 0
BBX 9 10 0 0
BITMAP
c180
c180
c180
c180
c980
c980
c980
dd80
7700
2200
ENDCHAR
STARTCHAR 88
ENCODING 88
SWIDTH 750 0
DWIDTH 9 0
BBX 8 10 0 0
BITMAP
c3
c3
66
3c
18
18
3c
66
c3
c3
ENDCHAR
STARTCHAR 89
ENCODING 89
SWIDTH 750 0
DWIDTH 9 0
BBX 8 10 0 0
BITMAP
c3
c3
c3
66
3c
18
18
18
18
18
ENDCHAR
STARTCHAR 90
ENCODING 90
SWIDTH 750 0
DWIDTH 9 0
BBX 8 10 0 0
BITMAP
ff
83
06
0c
18
18
30
60
c1
ff
ENDCHAR
STARTCHAR 91
ENCODING 91
SWIDTH 750 0
DWIDTH 9 0
BBX 4 13 2 -1
BITMAP
f0
c0
c0
c0
c0
c0
c0
c0
c0
c0
c0
c0
f0
ENDCHAR
STARTCHAR 92
ENCODING 92
SWIDTH 750 0
DWIDTH 9 0
BBX 8 14 0 -2
BITMAP
c0
c0
60
60
30
30
18
18
0c
0c
06
06
03
03
ENDCHAR
STARTCHAR 93
ENCODING 93
SWIDTH 750 0
DWIDTH 9 0
BBX 4 13 2 -1
BITMAP
f0
30
30
30
30
30
30
30
30
30
30
30
f0
ENDCHAR
STARTCHAR 94
ENCODING 94
SWIDTH 750 0
DWIDTH 9 0
BBX 6 3 1 9
BITMAP
30
78
cc
ENDCHAR
STARTCHAR 95
ENCODING 95
SWIDTH 750 0
DWIDTH 9 0
BBX 9 1 0 -2
BITMAP
ff80
ENDCHAR
STARTCHAR 96
ENCODING 96
SWIDTH 750 0
DWIDTH 9 0
BBX 4 5 2 6
BITMAP
30
60
c0
e0
e0
ENDCHAR
STARTCHAR 97
ENCODING 97
SWIDTH 750 0
DWIDTH 9 0
BBX 8 7 0 0
BITMAP
7c
c6
06
3e
c6
c6
7b
ENDCHAR
STARTCHAR 98
ENCODING 98
SWIDTH 750 0
DWIDTH 9 0
BBX 7 10 0 0
BITMAP
c0
c0
c0
dc
e6
c6
c6
c6
e6
dc
ENDCHAR
STARTCHAR 99
ENCODING 99
SWIDTH 750 0
DWIDTH 9 0
BBX 8 7 0 0
BITMAP
3e
63
c0
c0
c0
63
3e
ENDCHAR
STARTCHAR 100
ENCODING 100
SWIDTH 750 0
DWIDTH 9 0
BBX 7 10 0 0
BITMAP
06
06
06
76
ce
c6
c6
c6
ce
76
ENDCHAR
STARTCHAR 101
ENCODING 101
SWIDTH 750 0
DWIDTH 9 0
BBX 8 7 0 0
BITMAP
7e
c3
c3
ff
c0
c0
7e
ENDCHAR
STARTCHAR 102
ENCODING 102
SWIDTH 750 0
DWIDTH 9 0
BBX 7 10 1 0
BITMAP
3c
66
60
60
f8
60
60
60
60
60
ENDCHAR
STARTCHAR 103
ENCODING 103
SWIDTH 750 0
DWIDTH 9 0
BBX 8 10 0 -3
BITMAP
7d
c6
c6
c6
7c
c0
7e
c3
c3
7e
ENDCHAR
STARTCHAR 104
ENCODING 104
SWIDTH 750 0
DWIDTH 9 0
BBX 7 10 0 0
BITMAP
c0
c0
c0
dc
e6
c6
c6
c6
c6
c6
ENDCHAR
STARTCHAR 105
ENCODING 105
SWIDTH 750 0
DWIDTH 9 0
BBX 4 10 2 0
BITMAP
60
60
00
e0
60
60
60
60
60
f0
ENDCHAR
STARTCHAR 106
ENCODING 106
SWIDTH 750 0
DWIDTH 9 0
BBX 6 13 0 -3
BITMAP
0c
0c
00
1c
0c
0c
0c
0c
0c
0c
cc
cc
78
ENDCHAR
STARTCHAR 107
ENCODING 107
SWIDTH 750 0
DWIDTH 9 0
BBX 7 10 0 0
BITMAP
c0
c0
c0
c6
cc
d8
f0
d8
cc
c6
ENDCHAR
STARTCHAR 108
ENCODING 108
SWIDTH 750 0
DWIDTH 9 0
BBX 4 10 2 0
BITMAP
e0
60
60
60
60
60
60
60
60
f0
ENDCHAR
STARTCHAR 109
ENCODING 109
SWIDTH 750 0
DWIDTH 9 0
BBX 8 7 0 0
BITMAP
b6
db
db
db
db
db
db
ENDCHAR
STARTCHAR 110
ENCODING 110
SWIDTH 750 0
DWIDTH 9 0
BBX 7 7 0 0
BITMAP
dc
e6
c6
c6
c6
c6
c6
ENDCHAR
STARTCHAR 111
ENCODING 111
SWIDTH 750 0
DWIDTH 9 0
BBX 7 7 0 0
BITMAP
7c
c6
c6
c6
c6
c6
7c
ENDCHAR
STARTCHAR 112
ENCODING 112
SWIDTH 750 0
DWIDTH 9 0
BBX 7 10 0 -3
BITMAP
dc
e6
c6
c6
c6
e6
dc
c0
c0
c0
ENDCHAR
STARTCHAR 113
ENCODING 113
SWIDTH 750 0
DWIDTH 9 0
BBX 7 10 0 -3
BITMAP
76
ce
c6
c6
c6
ce
76
06
06
06
ENDCHAR
STARTCHAR 114
ENCODING 114
SWIDTH 750 0
DWIDTH 9 0
BBX 6 7 1 0
BITMAP
dc
ec
c0
c0
c0
c0
c0
ENDCHAR
STARTCHAR 115
ENCODING 115
SWIDTH 750 0
DWIDTH 9 0
BBX 7 7 0 0
BITMAP
7c
c6
c0
7c
06
c6
7c
ENDCHAR
STARTCHAR 116
ENCODING 116
SWIDTH 750 0
DWIDTH 9 0
BBX 8 9 0 0
BITMAP
30
30
fc
30
30
30
30
33
1e
ENDCHAR
STARTCHAR 117
ENCODING 117
SWIDTH 750 0
DWIDTH 9 0
BBX 7 7 0 0
BITMAP
c6
c6
c6
c6
c6
ce
76
ENDCHAR
STARTCHAR 118
ENCODING 118
SWIDTH 750 0
DWIDTH 9 0
BBX 7 7 0 0
BITMAP
c6
c6
c6
6c
6c
38
10
ENDCHAR
STARTCHAR 119
ENCODING 119
SWIDTH 750 0
DWIDTH 9 0
BBX 9 7 0 0
BITMAP
c180
c980
c980
c980
d580
7700
2200
ENDCHAR
STARTCHAR 120
ENCODING 120
SWIDTH 750 0
DWIDTH 9 0
BBX 8 7 0 0
BITMAP
c3
66
3c
18
3c
66
c3
ENDCHAR
STARTCHAR 121
ENCODING 121
SWIDTH 750 0
DWIDTH 9 0
BBX 8 10 0 -3
BITMAP
63
63
63
33
16
1c
0c
18
30
e0
ENDCHAR
STARTCHAR 122
ENCODING 122
SWIDTH 750 0
DWIDTH 9 0
BBX 7 7 0 0
BITMAP
fe
0c
18
30
60
c0
fe
ENDCHAR
STARTCHAR 123
ENCODING 123
SWIDTH 750 0
DWIDTH 9 0
BBX 6 13 1 -1
BITMAP
1c
30
30
30
30
30
e0
30
30
30
30
30
1c
ENDCHAR
STARTCHAR 124
ENCODING 124
SWIDTH 750 0
DWIDTH 9 0
BBX 2 13 3 -1
BITMAP
c0
c0
c0
c0
c0
c0
c0
c0
c0
c0
c0
c0
c0
ENDCHAR
STARTCHAR 125
ENCODING 125
SWIDTH 750 0
DWIDTH 9 0
BBX 6 13 1 -1
BITMAP
e0
30
30
30
30
30
1c
30
30
30
30
30
e0
ENDCHAR
STARTCHAR 126
ENCODING 126
SWIDTH 750 0
DWIDTH 9 0
BBX 9 4 0 7
BITMAP
7000
d880
8d80
0700
ENDCHAR
STARTCHAR 127
ENCODING 127
SWIDTH 750 0
DWIDTH 9 0
BBX 1 1 0 -3
BITMAP
00
ENDCHAR
STARTCHAR 160
ENCODING 160
SWIDTH 750 0
DWIDTH 9 0
BBX 1 1 0 -3
BITMAP
00
ENDCHAR
STARTCHAR 161
ENCODING 161
SWIDTH 750 0
DWIDTH 9 0
BBX 8 13 0 -3
BITMAP
18
3c
66
66
c3
c3
ff
c3
c3
c3
06
0c
07
ENDCHAR
STARTCHAR 162
ENCODING 162
SWIDTH 750 0
DWIDTH 9 0
BBX 7 3 1 9
BITMAP
c6
c6
7c
ENDCHAR
STARTCHAR 163
ENCODING 163
SWIDTH 750 0
DWIDTH 9 0
BBX 9 10 0 0
BITMAP
6000
6800
7800
7000
6000
e000
e000
6000
6180
7f80
ENDCHAR
STARTCHAR 164
ENCODING 164
SWIDTH 750 0
DWIDTH 9 0
BBX 9 8 0 3
BITMAP
c180
5d00
3600
6300
6300
3600
5d00
c180
ENDCHAR
STARTCHAR 165
ENCODING 165
SWIDTH 750 0
DWIDTH 9 0
BBX 8 12 0 0
BITMAP
1c
1c
cc
d8
d0
c0
c0
c0
c0
c0
c3
ff
ENDCHAR
STARTCHAR 166
ENCODING 166
SWIDTH 750 0
DWIDTH 9 0
BBX 8 13 0 0
BITMAP
0e
38
00
7e
c3
c0
c0
7c
3e
03
03
c3
7e
ENDCHAR
STARTCHAR 167
ENCODING 167
SWIDTH 750 0
DWIDTH 9 0
BBX 8 13 0 -1
BITMAP
7e
c3
c0
30
3c
c3
c3
c3
3c
0c
03
c3
7e
ENDCHAR
STARTCHAR 168
ENCODING 168
SWIDTH 750 0
DWIDTH 9 0
BBX 6 2 1 9
BITMAP
cc
cc
ENDCHAR
STARTCHAR 169
ENCODING 169
SWIDTH 750 0
DWIDTH 9 0
BBX 8 13 0 0
BITMAP
66
3c
00
7e
c3
c0
c0
7c
3e
03
03
c3
7e
ENDCHAR
STARTCHAR 170
ENCODING 170
SWIDTH 750 0
DWIDTH 9 0
BBX 8 13 0 -3
BITMAP
7e
c3
c0
c0
7c
3e
03
03
c3
7e
18
0c
38
ENDCHAR
STARTCHAR 171
ENCODING 171
SWIDTH 750 0
DWIDTH 9 0
BBX 8 13 0 0
BITMAP
66
3c
00
ff
99
18
18
18
18
18
18
18
3c
ENDCHAR
STARTCHAR 172
ENCODING 172
SWIDTH 750 0
DWIDTH 9 0
BBX 8 13 0 0
BITMAP
0e
38
00
ff
83
06
0c
18
18
30
60
c1
ff
ENDCHAR
STARTCHAR 173
ENCODING 173
SWIDTH 750 0
DWIDTH 9 0
BBX 6 1 1 6
BITMAP
fc
ENDCHAR
STARTCHAR 174
ENCODING 174
SWIDTH 750 0
DWIDTH 9 0
BBX 8 13 0 0
BITMAP
66
3c
00
ff
83
06
0c
18
18
30
60
c1
ff
ENDCHAR
STARTCHAR 175
ENCODING 175
SWIDTH 750 0
DWIDTH 9 0
BBX 8 13 0 0
BITMAP
18
18
00
ff
83
06
0c
18
18
30
60
c1
ff
ENDCHAR
STARTCHAR 176
ENCODING 176
SWIDTH 750 0
DWIDTH 9 0
BBX 5 4 2 8
BITMAP
70
d8
d8
70
ENDCHAR
STARTCHAR 177
ENCODING 177
SWIDTH 750 0
DWIDTH 9 0
BBX 8 10 0 -3
BITMAP
7c
c6
06
3e
c6
c6
7b
06
0c
07
ENDCHAR
STARTCHAR 178
ENCODING 178
SWIDTH 750 0
DWIDTH 9 0
BBX 5 4 3 -3
BITMAP
60
c0
c0
78
ENDCHAR
STARTCHAR 179
ENCODING 179
SWIDTH 750 0
DWIDTH 9 0
BBX 4 10 2 0
BITMAP
e0
60
70
70
60
e0
e0
60
60
f0
ENDCHAR
STARTCHAR 180
ENCODING 180
SWIDTH 750 0
DWIDTH 9 0
BBX 4 3 3 8
BITMAP
30
60
c0
ENDCHAR
STARTCHAR 181
ENCODING 181
SWIDTH 750 0
DWIDTH 9 0
BBX 6 12 2 0
BITMAP
0c
0c
e4
64
68
60
60
60
60
60
60
f0
ENDCHAR
STARTCHAR 182
ENCODING 182
SWIDTH 750 0
DWIDTH 9 0
BBX 7 11 0 0
BITMAP
0c
18
30
00
7c
c6
c0
7c
06
c6
7c
ENDCHAR
STARTCHAR 183
ENCODING 183
SWIDTH 750 0
DWIDTH 9 0
BBX 7 3 1 9
BITMAP
c6
6c
38
ENDCHAR
STARTCHAR 184
ENCODING 184
SWIDTH 750 0
DWIDTH 9 0
BBX 5 4 2 -3
BITMAP
30
18
18
f0
ENDCHAR
STARTCHAR 185
ENCODING 185
SWIDTH 750 0
DWIDTH 9 0
BBX 7 10 0 0
BITMAP
6c
38
00
7c
c6
c0
7c
06
c6
7c
ENDCHAR
STARTCHAR 186
ENCODING 186
SWIDTH 750 0
DWIDTH 9 0
BBX 7 10 0 -3
BITMAP
7c
c6
c0
7c
06
c6
7c
18
0c
38
ENDCHAR
STARTCHAR 187
ENCODING 187
SWIDTH 750 0
DWIDTH 9 0
BBX 8 11 0 0
BITMAP
03
03
31
32
fc
30
30
30
30
33
1e
ENDCHAR
STARTCHAR 188
ENCODING 188
SWIDTH 750 0
DWIDTH 9 0
BBX 7 11 0 0
BITMAP
0c
18
30
00
fe
0c
18
30
60
c0
fe
ENDCHAR
STARTCHAR 189
ENCODING 189
SWIDTH 750 0
DWIDTH 9 0
BBX 8 3 0 9
BITMAP
33
66
cc
ENDCHAR
STARTCHAR 190
ENCODING 190
SWIDTH 750 0
DWIDTH 9 0
BBX 7 10 0 0
BITMAP
6c
38
00
fe
0c
18
30
60
c0
fe
ENDCHAR
STARTCHAR 191
ENCODING 191
SWIDTH 750 0
DWIDTH 9 0
BBX 7 10 0 0
BITMAP
38
38
00
fe
0c
18
30
60
c0
fe
ENDCHAR
STARTCHAR 192
ENCODING 192
SWIDTH 750 0
DWIDTH 9 0
BBX 7 13 1 0
BITMAP
0e
38
00
fc
c6
c6
c6
fc
d8
cc
cc
c6
c6
ENDCHAR
STARTCHAR 193
ENCODING 193
SWIDTH 750 0
DWIDTH 9 0
BBX 8 13 0 0
BITMAP
07
1c
00
18
3c
66
66
c3
c3
ff
c3
c3
c3
ENDCHAR
STARTCHAR 194
ENCODING 194
SWIDTH 750 0
DWIDTH 9 0
BBX 8 14 0 0
BITMAP
18
3c
66
00
18
3c
66
66
c3
c3
ff
c3
c3
c3
ENDCHAR
STARTCHAR 195
ENCODING 195
SWIDTH 750 0
DWIDTH 9 0
BBX 8 13 0 0
BITMAP
42
3c
00
18
3c
66
66
c3
c3
ff
c3
c3
c3
ENDCHAR
STARTCHAR 196
ENCODING 196
SWIDTH 750 0
DWIDTH 9 0
BBX 8 13 0 0
BITMAP
66
66
00
18
3c
66
66
c3
c3
ff
c3
c3
c3
ENDCHAR
STARTCHAR 197
ENCODING 197
SWIDTH 750 0
DWIDTH 9 0
BBX 8 13 0 0
BITMAP
1c
70
00
c0
c0
c0
c0
c0
c0
c0
c0
c3
ff
ENDCHAR
STARTCHAR 198
ENCODING 198
SWIDTH 750 0
DWIDTH 9 0
BBX 8 13 0 0
BITMAP
07
1c
00
3e
63
c0
c0
c0
c0
c0
c0
63
3e
ENDCHAR
STARTCHAR 199
ENCODING 199
SWIDTH 750 0
DWIDTH 9 0
BBX 8 13 0 -3
BITMAP
3e
63
c0
c0
c0
c0
c0
c0
63
3e
0c
06
1c
ENDCHAR
STARTCHAR 200
ENCODING 200
SWIDTH 750 0
DWIDTH 9 0
BBX 8 13 0 0
BITMAP
36
1c
00
3e
63
c0
c0
c0
c0
c0
c0
63
3e
ENDCHAR
STARTCHAR 201
ENCODING 201
SWIDTH 750 0
DWIDTH 9 0
BBX 8 13 0 0
BITMAP
0e
38
00
ff
c3
c0
c0
fc
c0
c0
c0
c3
ff
ENDCHAR
STARTCHAR 202
ENCODING 202
SWIDTH 750 0
DWIDTH 9 0
BBX 8 13 0 -3
BITMAP
ff
c3
c0
c0
fc
c0
c0
c0
c3
ff
0c
18
0e
ENDCHAR
STARTCHAR 203
ENCODING 203
SWIDTH 750 0
DWIDTH 9 0
BBX 8 13 0 0
BITMAP
36
36
00
ff
c3
c0
c0
fc
c0
c0
c0
c3
ff
ENDCHAR
STARTCHAR 204
ENCODING 204
SWIDTH 750 0
DWIDTH 9 0
BBX 8 13 0 0
BITMAP
66
3c
00
ff
c3
c0
c0
fc
c0
c0
c0
c3
ff
ENDCHAR
STARTCHAR 205
ENCODING 205
SWIDTH 750 0
DWIDTH 9 0
BBX 6 13 1 0
BITMAP
1c
70
00
fc
30
30
30
30
30
30
30
30
fc
ENDCHAR
STARTCHAR 206
ENCODING 206
SWIDTH 750 0
DWIDTH 9 0
BBX 6 14 1 0
BITMAP
30
78
cc
00
fc
30
30
30
30
30
30
30
30
fc
ENDCHAR
STARTCHAR 207
ENCODING 207
SWIDTH 750 0
DWIDTH 9 0
BBX 7 13 1 0
BITMAP
6c
38
00
f8
cc
c6
c6
c6
c6
c6
c6
cc
f8
ENDCHAR
STARTCHAR 208
ENCODING 208
SWIDTH 750 0
DWIDTH 9 0
BBX 8 10 0 0
BITMAP
7c
66
63
63
fb
63
63
63
66
7c
ENDCHAR
STARTCHAR 209
ENCODING 209
SWIDTH 750 0
DWIDTH 9 0
BBX 8 13 0 0
BITMAP
0e
38
00
c3
c3
e3
f3
db
cf
c7
c3
c3
c3
ENDCHAR
STARTCHAR 210
ENCODING 210
SWIDTH 750 0
DWIDTH 9 0
BBX 8 13 0 0
BITMAP
66
3c
00
c3
c3
e3
f3
db
cf
c7
c3
c3
c3
ENDCHAR
STARTCHAR 211
ENCODING 211
SWIDTH 750 0
DWIDTH 9 0
BBX 8 13 0 0
BITMAP
0e
38
00
7e
c3
c3
c3
c3
c3
c3
c3
c3
7e
ENDCHAR
STARTCHAR 212
ENCODING 212
SWIDTH 750 0
DWIDTH 9 0
BBX 8 14 0 0
BITMAP
18
3c
66
00
7e
c3
c3
c3
c3
c3
c3
c3
c3
7e
ENDCHAR
STARTCHAR 213
ENCODING 213
SWIDTH 750 0
DWIDTH 9 0
BBX 8 14 0 0
BITMAP
33
66
cc
00
7e
c3
c3
c3
c3
c3
c3
c3
c3
7e
ENDCHAR
STARTCHAR 214
ENCODING 214
SWIDTH 750 0
DWIDTH 9 0
BBX 8 13 0 0
BITMAP
66
66
00
7e
c3
c3
c3
c3
c3
c3
c3
c3
7e
ENDCHAR
STARTCHAR 215
ENCODING 215
SWIDTH 750 0
DWIDTH 9 0
BBX 8 7 0 3
BITMAP
c3
66
3c
18
3c
66
c3
ENDCHAR
STARTCHAR 216
ENCODING 216
SWIDTH 750 0
DWIDTH 9 0
BBX 7 13 1 0
BITMAP
6c
38
00
fc
c6
c6
c6
fc
d8
cc
cc
c6
c6
ENDCHAR
STARTCHAR 217
ENCODING 217
SWIDTH 750 0
DWIDTH 9 0
BBX 8 14 0 0
BITMAP
18
24
24
18
c3
c3
c3
c3
c3
c3
c3
c3
c3
7e
ENDCHAR
STARTCHAR 218
ENCODING 218
SWIDTH 750 0
DWIDTH 9 0
BBX 8 13 0 0
BITMAP
0e
38
00
c3
c3
c3
c3
c3
c3
c3
c3
c3
7e
ENDCHAR
STARTCHAR 219
ENCODING 219
SWIDTH 750 0
DWIDTH 9 0
BBX 9 14 0 0
BITMAP
1980
3300
6600
0000
c300
c300
c300
c300
c300
c300
c300
c300
c300
7e00
ENDCHAR
STARTCHAR 220
ENCODING 220
SWIDTH 750 0
DWIDTH 9 0
BBX 8 13 0 0
BITMAP
66
66
00
c3
c3
c3
c3
c3
c3
c3
c3
c3
7e
ENDCHAR
STARTCHAR 221
ENCODING 221
SWIDTH 750 0
DWIDTH 9 0
BBX 8 13 0 0
BITMAP
07
1c
00
c3
c3
c3
66
3c
18
18
18
18
18
ENDCHAR
STARTCHAR 222
ENCODING 222
SWIDTH 750 0
DWIDTH 9 0
BBX 8 13 0 -3
BITMAP
ff
99
18
18
18
18
18
18
18
3c
18
0c
38
ENDCHAR
STARTCHAR 223
ENCODING 223
SWIDTH 750 0
DWIDTH 9 0
BBX 8 11 0 -1
BITMAP
3c
46
c6
c4
ce
c3
c3
c3
d3
de
80
ENDCHAR
STARTCHAR 224
ENCODING 224
SWIDTH 750 0
DWIDTH 9 0
BBX 6 11 1 0
BITMAP
0c
18
30
00
dc
ec
c0
c0
c0
c0
c0
ENDCHAR
STARTCHAR 225
ENCODING 225
SWIDTH 750 0
DWIDTH 9 0
BBX 8 11 0 0
BITMAP
06
0c
18
00
7c
c6
06
3e
c6
c6
7b
ENDCHAR
STARTCHAR 226
ENCODING 226
SWIDTH 750 0
DWIDTH 9 0
BBX 8 11 0 0
BITMAP
18
3c
66
00
7c
c6
06
3e
c6
c6
7b
ENDCHAR
STARTCHAR 227
ENCODING 227
SWIDTH 750 0
DWIDTH 9 0
BBX 8 10 0 0
BITMAP
c6
7c
00
7c
c6
06
3e
c6
c6
7b
ENDCHAR
STARTCHAR 228
ENCODING 228
SWIDTH 750 0
DWIDTH 9 0
BBX 8 11 0 0
BITMAP
66
66
00
00
7c
c6
06
3e
c6
c6
7b
ENDCHAR
STARTCHAR 229
ENCODING 229
SWIDTH 750 0
DWIDTH 9 0
BBX 5 13 2 0
BITMAP
38
e0
00
e0
60
60
60
60
60
60
60
60
f0
ENDCHAR
STARTCHAR 230
ENCODING 230
SWIDTH 750 0
DWIDTH 9 0
BBX 8 11 0 0
BITMAP
06
0c
18
00
3e
63
c0
c0
c0
63
3e
ENDCHAR
STARTCHAR 231
ENCODING 231
SWIDTH 750 0
DWIDTH 9 0
BBX 8 10 0 -3
BITMAP
3e
63
c0
c0
c0
63
3e
0c
06
1c
ENDCHAR
STARTCHAR 232
ENCODING 232
SWIDTH 750 0
DWIDTH 9 0
BBX 8 10 0 0
BITMAP
36
1c
00
3e
63
c0
c0
c0
63
3e
ENDCHAR
STARTCHAR 233
ENCODING 233
SWIDTH 750 0
DWIDTH 9 0
BBX 8 11 0 0
BITMAP
06
0c
18
00
7e
c3
c3
ff
c0
c0
7e
ENDCHAR
STARTCHAR 234
ENCODING 234
SWIDTH 750 0
DWIDTH 9 0
BBX 8 10 0 -3
BITMAP
7e
c3
c3
ff
c0
c0
7e
18
30
1c
ENDCHAR
STARTCHAR 235
ENCODING 235
SWIDTH 750 0
DWIDTH 9 0
BBX 8 10 0 0
BITMAP
66
66
00
7e
c3
c3
ff
c0
c0
7e
ENDCHAR
STARTCHAR 236
ENCODING 236
SWIDTH 750 0
DWIDTH 9 0
BBX 8 10 0 0
BITMAP
66
3c
00
7e
c3
c3
ff
c0
c0
7e
ENDCHAR
STARTCHAR 237
ENCODING 237
SWIDTH 750 0
DWIDTH 9 0
BBX 4 11 2 0
BITMAP
30
60
c0
00
e0
60
60
60
60
60
f0
ENDCHAR
STARTCHAR 238
ENCODING 238
SWIDTH 750 0
DWIDTH 9 0
BBX 6 11 1 0
BITMAP
30
78
cc
00
70
30
30
30
30
30
78
ENDCHAR
STARTCHAR 239
ENCODING 239
SWIDTH 750 0
DWIDTH 9 0
BBX 9 12 0 0
BITMAP
0180
0180
0680
0680
0700
7600
ce00
c600
c600
c600
ce00
7600
ENDCHAR
STARTCHAR 240
ENCODING 240
SWIDTH 750 0
DWIDTH 9 0
BBX 8 10 0 0
BITMAP
06
1f
06
76
ce
c6
c6
c6
ce
76
ENDCHAR
STARTCHAR 241
ENCODING 241
SWIDTH 750 0
DWIDTH 9 0
BBX 7 11 0 0
BITMAP
06
0c
18
00
dc
e6
c6
c6
c6
c6
c6
ENDCHAR
STARTCHAR 242
ENCODING 242
SWIDTH 750 0
DWIDTH 9 0
BBX 7 10 0 0
BITMAP
6c
38
00
dc
e6
c6
c6
c6
c6
c6
ENDCHAR
STARTCHAR 243
ENCODING 243
SWIDTH 750 0
DWIDTH 9 0
BBX 7 11 0 0
BITMAP
06
0c
18
00
7c
c6
c6
c6
c6
c6
7c
ENDCHAR
STARTCHAR 244
ENCODING 244
SWIDTH 750 0
DWIDTH 9 0
BBX 7 11 0 0
BITMAP
10
38
6c
00
7c
c6
c6
c6
c6
c6
7c
ENDCHAR
STARTCHAR 245
ENCODING 245
SWIDTH 750 0
DWIDTH 9 0
BBX 8 11 0 0
BITMAP
33
66
cc
00
7c
c6
c6
c6
c6
c6
7c
ENDCHAR
STARTCHAR 246
ENCODING 246
SWIDTH 750 0
DWIDTH 9 0
BBX 7 11 0 0
BITMAP
6c
6c
00
00
7c
c6
c6
c6
c6
c6
7c
ENDCHAR
STARTCHAR 247
ENCODING 247
SWIDTH 750 0
DWIDTH 9 0
BBX 8 8 0 1
BITMAP
18
18
00
ff
ff
00
18
18
ENDCHAR
STARTCHAR 248
ENCODING 248
SWIDTH 750 0
DWIDTH 9 0
BBX 6 10 1 0
BITMAP
6c
38
00
dc
ec
c0
c0
c0
c0
c0
ENDCHAR
STARTCHAR 249
ENCODING 249
SWIDTH 750 0
DWIDTH 9 0
BBX 7 11 0 0
BITMAP
38
6c
38
00
c6
c6
c6
c6
c6
ce
76
ENDCHAR
STARTCHAR 250
ENCODING 250
SWIDTH 750 0
DWIDTH 9 0
BBX 7 11 0 0
BITMAP
06
0c
18
00
c6
c6
c6
c6
c6
ce
76
ENDCHAR
STARTCHAR 251
ENCODING 251
SWIDTH 750 0
DWIDTH 9 0
BBX 8 11 0 0
BITMAP
33
66
cc
00
c6
c6
c6
c6
c6
ce
76
ENDCHAR
STARTCHAR 252
ENCODING 252
SWIDTH 750 0
DWIDTH 9 0
BBX 7 11 0 0
BITMAP
6c
6c
00
00
c6
c6
c6
c6
c6
ce
76
ENDCHAR
STARTCHAR 253
ENCODING 253
SWIDTH 750 0
DWIDTH 9 0
BBX 8 14 0 -3
BITMAP
03
06
0c
00
63
63
63
33
16
1c
0c
18
30
e0
ENDCHAR
STARTCHAR 254
ENCODING 254
SWIDTH 750 0
DWIDTH 9 0
BBX 8 12 0 -3
BITMAP
30
30
fc
30
30
30
30
33
1e
0c
06
1c
ENDCHAR
STARTCHAR 255
ENCODING 255
SWIDTH 750 0
DWIDTH 9 0
BBX 3 2 3 9
BITMAP
e0
e0
ENDCHAR
ENDFONT
